<svg width="20" height="20" viewBox="0 0 20 20" fill="none" xmlns="http://www.w3.org/2000/svg">
<path fill-rule="evenodd" clip-rule="evenodd" d="M5.96804 1.66602H14.0323C14.4715 1.666 14.8506 1.66599 15.1627 1.69149C15.4921 1.71841 15.8198 1.77784 16.1351 1.9385C16.6055 2.17819 16.988 2.56064 17.2277 3.03104C17.3883 3.34636 17.4478 3.67404 17.4747 4.00349C17.5002 4.31563 17.5002 4.6946 17.5002 5.13388V16.666H18.3335C18.7937 16.666 19.1668 17.0391 19.1668 17.4993C19.1668 17.9596 18.7937 18.3327 18.3335 18.3327H1.66683C1.20659 18.3327 0.833496 17.9596 0.833496 17.4993C0.833496 17.0391 1.20659 16.666 1.66683 16.666H2.50016L2.50016 5.1339C2.50015 4.69461 2.50014 4.31564 2.52564 4.00349C2.55256 3.67404 2.61199 3.34636 2.77265 3.03104C3.01233 2.56064 3.39478 2.17819 3.86519 1.9385C4.1805 1.77784 4.50819 1.71841 4.83764 1.69149C5.14977 1.66599 5.52878 1.666 5.96804 1.66602ZM6.04183 4.99935C5.58159 4.99935 5.2085 5.37245 5.2085 5.83268C5.2085 6.29292 5.58159 6.66602 6.04183 6.66602H8.3335C8.79373 6.66602 9.16683 6.29292 9.16683 5.83268C9.16683 5.37245 8.79373 4.99935 8.3335 4.99935H6.04183ZM6.04183 8.33268C5.58159 8.33268 5.2085 8.70578 5.2085 9.16602C5.2085 9.62625 5.58159 9.99935 6.04183 9.99935H8.3335C8.79373 9.99935 9.16683 9.62625 9.16683 9.16602C9.16683 8.70578 8.79373 8.33268 8.3335 8.33268H6.04183ZM5.2085 12.4993C5.2085 12.0391 5.58159 11.666 6.04183 11.666H8.3335C8.79373 11.666 9.16683 12.0391 9.16683 12.4993C9.16683 12.9596 8.79373 13.3327 8.3335 13.3327H6.04183C5.58159 13.3327 5.2085 12.9596 5.2085 12.4993ZM11.6668 4.99935C11.2066 4.99935 10.8335 5.37245 10.8335 5.83268C10.8335 6.29292 11.2066 6.66602 11.6668 6.66602H13.9585C14.4187 6.66602 14.7918 6.29292 14.7918 5.83268C14.7918 5.37245 14.4187 4.99935 13.9585 4.99935H11.6668ZM10.8335 9.16602C10.8335 8.70578 11.2066 8.33268 11.6668 8.33268H13.9585C14.4187 8.33268 14.7918 8.70578 14.7918 9.16602C14.7918 9.62625 14.4187 9.99935 13.9585 9.99935H11.6668C11.2066 9.99935 10.8335 9.62625 10.8335 9.16602ZM11.6668 11.666C11.2066 11.666 10.8335 12.0391 10.8335 12.4993C10.8335 12.9596 11.2066 13.3327 11.6668 13.3327H13.9585C14.4187 13.3327 14.7918 12.9596 14.7918 12.4993C14.7918 12.0391 14.4187 11.666 13.9585 11.666H11.6668Z" fill="#0065FF"/>
</svg>
