<svg width="20" height="20" viewBox="0 0 20 20" fill="none" xmlns="http://www.w3.org/2000/svg">
<path fill-rule="evenodd" clip-rule="evenodd" d="M9.03228 2.5H4.30138C3.8621 2.49999 3.48311 2.49997 3.17097 2.52548C2.84152 2.55239 2.51384 2.61182 2.19852 2.77249C1.72812 3.01217 1.34567 3.39462 1.10598 3.86503C0.94532 4.18034 0.88589 4.50802 0.858973 4.83748C0.83347 5.14961 0.833483 5.52857 0.833497 5.96785V12.5C0.833497 13.6172 1.5663 14.5632 2.57746 14.8836C2.90546 16.38 4.23868 17.5 5.8335 17.5C7.3867 17.5 8.69178 16.4377 9.06182 15H11.6505L11.6668 15.0002H12.1131C12.3153 16.4135 13.5309 17.5 15.0002 17.5C16.487 17.5 17.7139 16.3875 17.8941 14.9496C17.9729 14.9321 18.0548 14.9077 18.138 14.8733C18.5463 14.7041 18.8708 14.3797 19.04 13.9713C19.1207 13.7763 19.1461 13.5882 19.157 13.4295C19.1669 13.2844 19.1668 13.1139 19.1668 12.9389L19.1668 10.5524L19.1669 10.5099C19.1673 10.3517 19.1679 10.1524 19.1208 9.95626C19.08 9.7862 19.0126 9.62363 18.9212 9.47451C18.8158 9.30254 18.6746 9.16201 18.5624 9.0504L18.5322 9.02038L15.1466 5.63476L15.1166 5.60463C15.005 5.49243 14.8644 5.35114 14.6925 5.24576C14.5434 5.15438 14.3808 5.08704 14.2107 5.04621C14.0146 4.99913 13.8153 4.99966 13.6571 5.00008L13.6145 5.00016H12.4855C12.4825 4.94407 12.479 4.88984 12.4747 4.83748C12.4478 4.50802 12.3883 4.18034 12.2277 3.86503C11.988 3.39462 11.6055 3.01217 11.1351 2.77249C10.8198 2.61182 10.4921 2.55239 10.1627 2.52548C9.85055 2.49997 9.47156 2.49999 9.03228 2.5ZM17.4999 13.0798C17.5001 13.0328 17.5002 12.9791 17.5002 12.9168V10.5524C17.5002 10.4433 17.5 10.3888 17.4982 10.3492L17.498 10.3462L17.496 10.344C17.4693 10.3148 17.4309 10.2761 17.3537 10.1989L13.9681 6.81327C13.8909 6.73608 13.8522 6.69769 13.823 6.67099L13.8208 6.66898L13.8178 6.66884C13.7782 6.66703 13.7237 6.66683 13.6145 6.66683H12.5002V13.0802C13.0105 12.2332 13.9392 11.6667 15.0002 11.6667C16.061 11.6667 16.9895 12.233 17.4999 13.0798ZM5.8335 12.5C4.91302 12.5 4.16683 13.2462 4.16683 14.1667C4.16683 15.0871 4.91302 15.8333 5.8335 15.8333C6.75397 15.8333 7.50016 15.0871 7.50016 14.1667C7.50016 13.2462 6.75397 12.5 5.8335 12.5ZM13.7502 14.5833C13.7502 13.893 14.3098 13.3333 15.0002 13.3333C15.6905 13.3333 16.2502 13.893 16.2502 14.5833C16.2502 15.2737 15.6905 15.8333 15.0002 15.8333C14.3098 15.8333 13.7502 15.2737 13.7502 14.5833Z" fill="#0065FF"/>
</svg>
