<svg width="20" height="20" viewBox="0 0 20 20" fill="none" xmlns="http://www.w3.org/2000/svg">
<path d="M7.08333 15.8337V17.667C7.08333 17.9003 7.08333 18.017 7.03792 18.1062C6.99797 18.1846 6.93423 18.2483 6.85583 18.2882C6.7667 18.3337 6.65002 18.3337 6.41667 18.3337H4.83333C4.59998 18.3337 4.4833 18.3337 4.39417 18.2882C4.31577 18.2483 4.25203 18.1846 4.21208 18.1062C4.16667 18.017 4.16667 17.9003 4.16667 17.667V15.8337M15.8333 15.8337V17.667C15.8333 17.9003 15.8333 18.017 15.7879 18.1062C15.748 18.1846 15.6842 18.2483 15.6058 18.2882C15.5167 18.3337 15.4 18.3337 15.1667 18.3337H13.5833C13.35 18.3337 13.2333 18.3337 13.1442 18.2882C13.0658 18.2483 13.002 18.1846 12.9621 18.1062C12.9167 18.017 12.9167 17.9003 12.9167 17.667V15.8337M2.5 10.0003H17.5M2.5 4.58366H17.5M5.41667 12.917H6.66667M13.3333 12.917H14.5833M6.5 15.8337H13.5C14.9001 15.8337 15.6002 15.8337 16.135 15.5612C16.6054 15.3215 16.9878 14.939 17.2275 14.4686C17.5 13.9339 17.5 13.2338 17.5 11.8337V5.66699C17.5 4.26686 17.5 3.5668 17.2275 3.03202C16.9878 2.56161 16.6054 2.17916 16.135 1.93948C15.6002 1.66699 14.9001 1.66699 13.5 1.66699H6.5C5.09987 1.66699 4.3998 1.66699 3.86502 1.93948C3.39462 2.17916 3.01217 2.56161 2.77248 3.03202C2.5 3.5668 2.5 4.26686 2.5 5.66699V11.8337C2.5 13.2338 2.5 13.9339 2.77248 14.4686C3.01217 14.939 3.39462 15.3215 3.86502 15.5612C4.3998 15.8337 5.09987 15.8337 6.5 15.8337Z" stroke="#0065FF" stroke-width="1.5" stroke-linecap="round" stroke-linejoin="round"/>
</svg>
