<svg width="20" height="20" viewBox="0 0 20 20" fill="none" xmlns="http://www.w3.org/2000/svg">
<path fill-rule="evenodd" clip-rule="evenodd" d="M10.8903 4.84115C10.9784 4.38943 11.4161 4.09468 11.8678 4.18281C12.8445 4.37338 13.7422 4.85107 14.4459 5.55475C15.1495 6.25843 15.6272 7.15608 15.8178 8.13281C15.9059 8.58453 15.6112 9.02217 15.1595 9.1103C14.7077 9.19843 14.2701 8.90369 14.182 8.45197C14.0549 7.80081 13.7365 7.20238 13.2673 6.73326C12.7982 6.26414 12.1998 5.94568 11.5486 5.81864C11.0969 5.7305 10.8022 5.29287 10.8903 4.84115Z" fill="#0065FF"/>
<path fill-rule="evenodd" clip-rule="evenodd" d="M10.88 1.57538C10.9308 1.11796 11.3428 0.788337 11.8002 0.839153C13.6792 1.04789 15.4313 1.88931 16.769 3.22527C18.1066 4.56123 18.9502 6.31231 19.1613 8.191C19.2127 8.64836 18.8836 9.06079 18.4263 9.11218C17.9689 9.16357 17.5565 8.83447 17.5051 8.37711C17.3362 6.87415 16.6613 5.47329 15.5912 4.40452C14.5211 3.33576 13.1194 2.66262 11.6162 2.49563C11.1588 2.44481 10.8292 2.0328 10.88 1.57538Z" fill="#0065FF"/>
<path fill-rule="evenodd" clip-rule="evenodd" d="M5.28146 14.7942C3.2532 12.7659 1.77835 10.2401 0.994527 7.48243C0.871604 7.04992 0.776283 6.71453 0.774913 6.25462C0.773348 5.72897 0.944604 5.07044 1.20205 4.61215C1.64478 3.82401 2.59542 2.81397 3.41652 2.39866C4.12597 2.03982 4.9638 2.03982 5.67326 2.39866C6.36964 2.75088 7.16844 3.56622 7.59254 4.21851C8.13128 5.04712 8.13128 6.11535 7.59254 6.94396C7.44817 7.166 7.2424 7.37143 7.00351 7.60991C6.92913 7.68417 6.84726 7.73782 6.90163 7.85106C7.44148 8.97546 8.17772 10.0301 9.11162 10.964C10.0455 11.8979 11.1002 12.6342 12.2246 13.174C12.341 13.2299 12.3887 13.1493 12.4657 13.0721C12.7042 12.8332 12.9096 12.6275 13.1317 12.4831C13.9603 11.9444 15.0285 11.9444 15.8571 12.4831C16.5094 12.9072 17.3248 13.706 17.677 14.4024C18.0358 15.1118 18.0358 15.9497 17.677 16.6591C17.2648 17.4741 16.263 18.4245 15.4635 18.8736C15.0052 19.131 14.3467 19.3023 13.821 19.3007C13.3611 19.2994 13.0257 19.204 12.5932 19.0811C9.83553 18.2974 7.30969 16.8224 5.28146 14.7942Z" fill="#0065FF"/>
</svg>
