<svg width="32" height="32" viewBox="0 0 32 32" fill="none" xmlns="http://www.w3.org/2000/svg">
<path fill-rule="evenodd" clip-rule="evenodd" d="M4 13.333C4 6.70559 9.37258 1.33301 16 1.33301C22.6274 1.33301 28 6.70559 28 13.333C28 16.7012 26.4709 19.6533 24.3897 22.3557C22.6506 24.6139 20.4244 26.8207 18.2009 29.0251L18.1993 29.0266C17.7793 29.443 17.3594 29.8593 16.9428 30.2758C16.4221 30.7965 15.5779 30.7965 15.0572 30.2758C14.6404 29.859 14.2192 29.4415 13.7989 29.0248C11.5753 26.8205 9.34939 24.6139 7.6103 22.3557C5.52911 19.6533 4 16.7012 4 13.333ZM20 13.333C20 15.5421 18.2091 17.333 16 17.333C13.7909 17.333 12 15.5421 12 13.333C12 11.1239 13.7909 9.33301 16 9.33301C18.2091 9.33301 20 11.1239 20 13.333Z" fill="#25AC63"/>
</svg>
