<svg width="20" height="20" viewBox="0 0 20 20" fill="none" xmlns="http://www.w3.org/2000/svg">
<path d="M0.833496 4.16634C0.833496 2.32539 2.32588 0.833008 4.16683 0.833008C6.00778 0.833008 7.50016 2.32539 7.50016 4.16634C7.50016 6.00729 6.00778 7.49967 4.16683 7.49967C2.32588 7.49967 0.833496 6.00729 0.833496 4.16634Z" fill="#0065FF"/>
<path d="M12.5002 15.833C12.5002 13.9921 13.9925 12.4997 15.8335 12.4997C17.6744 12.4997 19.1668 13.9921 19.1668 15.833C19.1668 17.674 17.6744 19.1663 15.8335 19.1663C13.9925 19.1663 12.5002 17.674 12.5002 15.833Z" fill="#0065FF"/>
<path d="M12.7944 5.0539C12.1417 5.00036 11.2309 4.99968 9.94551 4.99968H9.58351C9.12328 4.99968 8.75018 4.62658 8.75018 4.16634C8.75018 3.7061 9.12328 3.33301 9.58351 3.33301H9.98739C11.2217 3.333 12.2014 3.333 12.9307 3.39281C13.3021 3.42327 13.6459 3.47172 13.9469 3.55694C14.247 3.64194 14.5563 3.77769 14.8093 4.01712C15.4342 4.60847 15.7112 5.47961 15.5425 6.32327C15.4742 6.66485 15.3001 6.95427 15.1041 7.19699C14.9076 7.44036 14.6549 7.67847 14.3692 7.91782C13.8084 8.38776 13.0085 8.95355 12.0009 9.66626L10.2806 10.883L10.2731 10.8884L8.57949 12.0863C7.53009 12.8286 6.78685 13.3551 6.2849 13.7757C6.03597 13.9843 5.87559 14.1432 5.77634 14.2661C5.69419 14.3678 5.67677 14.4172 5.67499 14.4223C5.62004 14.7018 5.71167 14.99 5.91793 15.1865C5.92238 15.1897 5.96508 15.2199 6.0909 15.2555C6.24291 15.2986 6.46558 15.3356 6.78925 15.3622C7.44195 15.4157 8.3528 15.4164 9.63817 15.4164H10.4168C10.8771 15.4164 11.2502 15.7895 11.2502 16.2497C11.2502 16.71 10.8771 17.0831 10.4168 17.0831H9.59632C8.36205 17.0831 7.38228 17.0831 6.65302 17.0233C6.2816 16.9928 5.93776 16.9444 5.6368 16.8591C5.33665 16.7741 5.0274 16.6384 4.77437 16.399C4.14944 15.8076 3.87249 14.9365 4.04122 14.0928C4.10953 13.7512 4.28361 13.4618 4.47958 13.2191C4.67607 12.9757 4.92881 12.7376 5.21445 12.4983C5.45909 12.2933 5.74921 12.07 6.08223 11.8243C6.11382 11.7933 6.14831 11.7644 6.18563 11.738L11.0042 8.32977C12.0536 7.58751 12.7968 7.06097 13.2988 6.64035C13.5477 6.43177 13.7081 6.27293 13.8073 6.15C13.8895 6.04826 13.9069 5.99895 13.9087 5.99375C13.9636 5.71426 13.872 5.42605 13.6658 5.22959C13.6613 5.22639 13.6186 5.19619 13.4928 5.16055C13.3408 5.11751 13.1181 5.08044 12.7944 5.0539Z" fill="#0065FF"/>
</svg>
