<svg width="20" height="20" viewBox="0 0 20 20" fill="none" xmlns="http://www.w3.org/2000/svg">
<path fill-rule="evenodd" clip-rule="evenodd" d="M4.30138 2.5H15.6989C16.1382 2.49999 16.5172 2.49998 16.8294 2.52548C17.1588 2.55239 17.4865 2.61182 17.8018 2.77249C18.2722 3.01217 18.6547 3.39462 18.8943 3.86503C19.055 4.18034 19.1144 4.50802 19.1414 4.83748C19.1669 5.14962 19.1668 5.52858 19.1668 5.96786V7.08334C19.1668 7.54357 18.7937 7.91667 18.3335 7.91667C17.1829 7.91667 16.2502 8.84941 16.2502 10C16.2502 11.1506 17.1829 12.0833 18.3335 12.0833C18.7937 12.0833 19.1668 12.4564 19.1668 12.9167V14.0321C19.1668 14.4714 19.1669 14.8504 19.1414 15.1625C19.1144 15.492 19.055 15.8197 18.8943 16.135C18.6547 16.6054 18.2722 16.9878 17.8018 17.2275C17.4865 17.3882 17.1588 17.4476 16.8294 17.4745C16.5172 17.5 16.1383 17.5 15.699 17.5H4.30136C3.86208 17.5 3.48311 17.5 3.17098 17.4745C2.84152 17.4476 2.51384 17.3882 2.19852 17.2275C1.72812 16.9878 1.34567 16.6054 1.10598 16.135C0.945321 15.8197 0.885891 15.492 0.858973 15.1625C0.833472 14.8504 0.833483 14.4714 0.833497 14.0322V12.9167C0.833497 12.4564 1.20659 12.0833 1.66683 12.0833C2.81743 12.0833 3.75017 11.1506 3.75017 10C3.75017 8.84941 2.81743 7.91667 1.66683 7.91667C1.20659 7.91667 0.833497 7.54357 0.833497 7.08334V5.96785C0.833483 5.52858 0.833472 5.14961 0.858973 4.83748C0.885891 4.50802 0.945321 4.18034 1.10598 3.86503C1.34567 3.39462 1.72812 3.01217 2.19852 2.77249C2.51384 2.61182 2.84152 2.55239 3.17098 2.52548C3.4831 2.49998 3.86211 2.49999 4.30138 2.5ZM9.16683 5.41667C9.16683 4.95643 8.79373 4.58333 8.3335 4.58333C7.87326 4.58333 7.50016 4.95643 7.50016 5.41667V6.25C7.50016 6.71024 7.87326 7.08333 8.3335 7.08333C8.79373 7.08333 9.16683 6.71024 9.16683 6.25V5.41667ZM8.3335 8.75C8.79373 8.75 9.16683 9.1231 9.16683 9.58333V10.4167C9.16683 10.8769 8.79373 11.25 8.3335 11.25C7.87326 11.25 7.50016 10.8769 7.50016 10.4167V9.58333C7.50016 9.1231 7.87326 8.75 8.3335 8.75ZM9.16683 13.75C9.16683 13.2898 8.79373 12.9167 8.3335 12.9167C7.87326 12.9167 7.50016 13.2898 7.50016 13.75V14.5833C7.50016 15.0436 7.87326 15.4167 8.3335 15.4167C8.79373 15.4167 9.16683 15.0436 9.16683 14.5833V13.75Z" fill="#0065FF"/>
</svg>
