<svg width="20" height="20" viewBox="0 0 20 20" fill="none" xmlns="http://www.w3.org/2000/svg">
<path d="M13.3332 15L14.9998 16.6667L18.3332 13.3333M9.99984 12.5H6.6665C5.11337 12.5 4.3368 12.5 3.72423 12.7537C2.90747 13.092 2.25855 13.741 1.92024 14.5577C1.6665 15.1703 1.6665 15.9469 1.6665 17.5M12.9165 2.7423C14.1381 3.23679 14.9998 4.43443 14.9998 5.83333C14.9998 7.23224 14.1381 8.42988 12.9165 8.92437M11.2498 5.83333C11.2498 7.67428 9.75745 9.16667 7.9165 9.16667C6.07555 9.16667 4.58317 7.67428 4.58317 5.83333C4.58317 3.99238 6.07555 2.5 7.9165 2.5C9.75745 2.5 11.2498 3.99238 11.2498 5.83333Z" stroke="#25AC63" stroke-width="1.5" stroke-linecap="round" stroke-linejoin="round"/>
</svg>
